<svg width="30" height="30" viewBox="0 0 30 30" fill="none" xmlns="http://www.w3.org/2000/svg">
<path d="M25.3409 7.25772C25.3165 7.25772 23.8531 7.66691 21.9994 7.23618C21.8287 7.19311 21.7067 7.06389 21.7311 6.91314C21.7311 6.91314 21.7311 6.91314 21.7311 6.8916C21.7555 6.69778 21.9506 6.56856 22.1701 6.5901C22.5604 6.65471 22.9262 6.69778 23.2921 6.71931C23.7311 6.74085 24.1214 6.74085 24.4872 6.69778C25.4384 6.63317 26.0238 5.77172 25.6823 4.97488C25.6579 4.97488 23.6579 5.66404 21.3165 4.82412C20.7799 4.6303 19.2189 4.02728 19.2189 4.02728C18.8775 3.89806 18.4872 4.07035 18.4384 4.3934C18.4384 4.41493 18.4384 4.43647 18.4384 4.45801V7.08543C18.4384 7.53769 18.3165 7.92534 18.1214 8.26992C18.0482 8.39914 17.9506 8.52836 17.8531 8.65758C17.8043 8.72219 17.7555 8.76526 17.6823 8.82987C17.2189 9.28213 16.5604 9.58364 15.8043 9.73439L15.3896 10.3589C15.3409 10.4236 15.2921 10.4666 15.2189 10.4882C15.1457 10.5097 15.0726 10.5312 14.9994 10.5312C14.9018 10.5312 14.7799 10.5097 14.7067 10.4235C14.6823 10.402 14.6579 10.3805 14.6335 10.3374L14.2189 9.71285C13.1945 9.49749 12.3409 9.00216 11.9018 8.24839C11.7067 7.90381 11.5848 7.51616 11.5848 7.06389V4.47954C11.5848 4.45801 11.5848 4.43647 11.5848 4.41493C11.536 4.09189 11.1214 3.9196 10.8043 4.04882C10.8043 4.04882 9.21891 4.65183 8.70672 4.84566C6.36526 5.68557 4.36526 4.99641 4.34086 4.99641C3.9994 5.77172 4.58477 6.63317 5.53599 6.71931C5.90184 6.74085 6.29208 6.76239 6.73111 6.74085C7.07257 6.71931 7.46282 6.67624 7.85306 6.61163C8.07257 6.56856 8.26769 6.71931 8.29209 6.91314C8.29209 6.91314 8.29209 6.91314 8.29209 6.93468C8.29209 7.08543 8.19452 7.23618 8.02379 7.25772C6.17013 7.68845 4.70672 7.27926 4.68233 7.27926C4.38965 8.0761 5.02379 8.91601 5.97501 8.93755C6.34087 8.95908 6.73111 8.93755 7.17013 8.89448C7.5116 8.87294 7.85306 8.80833 8.21891 8.74372C8.41404 8.70065 8.60916 8.80833 8.65794 8.98062C8.70672 9.15291 8.58477 9.30366 8.41404 9.36827C6.70672 9.84207 5.34087 9.58364 5.31647 9.58364C5.09696 10.402 5.82867 11.1773 6.7555 11.1342C7.12135 11.1127 7.5116 11.0696 7.92623 11.005C8.21891 10.962 8.53599 10.8758 8.87745 10.7897C9.07257 10.7466 9.2677 10.8327 9.31648 10.9835C9.31648 11.005 9.31648 11.005 9.34087 11.0266C9.41404 11.1773 9.31648 11.3496 9.14574 11.4358C7.73111 12.0388 6.53599 12.0388 6.53599 12.0388C6.53599 12.8571 7.43843 13.5032 8.34087 13.2879C8.68233 13.2017 9.07257 13.094 9.46282 12.9433C9.60916 12.8787 9.7555 12.8356 9.92623 12.7495C10.097 12.6849 10.2921 12.7279 10.3896 12.8571L10.414 12.8787C10.536 13.0294 10.4872 13.2233 10.3165 13.3309C9.29209 13.934 8.38965 14.1062 8.38965 14.1062C8.56038 14.9246 9.58477 15.3769 10.4384 14.9892C10.7555 14.8385 11.097 14.6662 11.4628 14.4508C11.4628 14.4508 11.4872 14.4508 11.4872 14.4293C11.6335 14.3431 11.8287 14.3431 11.9506 14.4724C11.975 14.4939 11.975 14.4939 11.9994 14.5154C12.1214 14.6231 12.1457 14.8169 12.0238 14.9462C11.3409 15.6784 10.7067 16.023 10.6823 16.023C11.1701 16.7552 12.2921 16.8629 12.9506 16.2599C13.0482 16.1522 13.1701 16.0445 13.2921 15.9368C13.5848 16.3891 13.8043 16.949 13.9506 17.7028C13.975 17.8536 13.9994 18.0043 14.0238 18.1551C12.536 19.5765 10.7555 19.878 10.7311 19.878C10.9018 20.6963 11.9018 21.1701 12.7555 20.804C13.0726 20.6748 13.414 20.481 13.7799 20.2872C13.9262 20.201 14.0482 20.1149 14.1945 20.0287L14.2433 20.8686C13.3165 21.5147 12.4872 21.7516 12.4628 21.7516L12.5604 22.0531C12.7799 22.6777 13.5848 22.9792 14.2433 22.6561C14.2677 22.6346 14.2921 22.6346 14.3409 22.6131V23.8191C14.3409 24.0345 14.4628 24.2283 14.6579 24.4006L15.0238 24.7021L15.3896 24.4006C15.5848 24.2283 15.7067 24.0345 15.7067 23.8191V22.6131C15.7311 22.6346 15.7555 22.6561 15.8043 22.6561C16.4384 22.9792 17.2677 22.6777 17.4872 22.0531L17.5848 21.7516C17.5604 21.7516 16.7555 21.5147 15.8043 20.8686L15.8531 20.0287C15.9994 20.1149 16.1214 20.2225 16.2677 20.2872C16.6335 20.5025 16.975 20.6748 17.2921 20.804C18.1457 21.1701 19.1457 20.6963 19.3165 19.878C19.2921 19.878 17.536 19.5765 16.0238 18.1551C16.0482 18.0043 16.0726 17.8536 16.097 17.7028C16.2189 16.9706 16.4628 16.4106 16.7555 15.9368C16.8775 16.0445 16.975 16.1737 17.097 16.2599C17.7555 16.8629 18.8775 16.7552 19.3653 16.023C19.3653 16.023 18.7067 15.6784 18.0238 14.9462C17.9018 14.8169 17.9018 14.6231 18.0482 14.5154C18.0726 14.4939 18.0726 14.4939 18.097 14.4724C18.2189 14.3647 18.414 14.3431 18.5604 14.4293C18.5604 14.4293 18.5848 14.4293 18.5848 14.4508C18.9262 14.6662 19.2921 14.86 19.6092 14.9892C20.4628 15.3769 21.4872 14.9246 21.6579 14.1062C21.6336 14.1062 20.7555 13.934 19.7311 13.3309C19.5604 13.2233 19.5116 13.0294 19.6335 12.8787L19.6579 12.8571C19.7555 12.7279 19.9506 12.6849 20.1214 12.7495C20.2677 12.8141 20.4384 12.8787 20.5848 12.9433C20.975 13.094 21.3653 13.2017 21.7067 13.2879C22.6336 13.5032 23.5116 12.8571 23.4872 12.0388C23.4628 12.0388 22.2677 12.0388 20.8775 11.4358C20.7067 11.3711 20.6336 11.1989 20.6823 11.0266C20.6823 11.005 20.6823 11.005 20.7067 10.9835C20.7799 10.8327 20.975 10.7466 21.1457 10.7897C21.4628 10.8758 21.7799 10.9404 22.097 11.005C22.5116 11.0696 22.9262 11.1127 23.2677 11.1342C24.2189 11.1773 24.9262 10.402 24.7067 9.58364C24.6823 9.58364 23.3165 9.84207 21.6092 9.36827C21.4384 9.3252 21.3165 9.15291 21.3653 8.98062C21.414 8.80833 21.6092 8.70065 21.8043 8.74372C22.1701 8.80833 22.536 8.87294 22.8531 8.89448C23.2921 8.93755 23.6823 8.93755 24.0482 8.93755C24.9994 8.89448 25.6579 8.05456 25.3409 7.25772Z" fill="#242424"/>
<path d="M17.1955 4.24267H14.6345C14.293 4.24267 14.0004 4.4365 13.8784 4.71647H13.3906C12.8296 4.71647 12.3662 5.12566 12.3662 5.62099V6.67627C12.4882 6.43937 12.7565 6.26708 13.0735 6.26708H13.976L13.415 8.29148C13.3662 8.4207 13.4638 8.52838 13.5857 8.52838C14.0247 8.52838 14.1955 8.46378 14.5369 8.1838L14.9028 9.08833C14.9272 9.1314 14.9516 9.15294 15.0004 9.15294C15.0491 9.15294 15.0735 9.1314 15.0979 9.08833L15.4638 8.1838C15.7808 8.46378 15.976 8.52838 16.415 8.52838C16.5613 8.52838 16.6345 8.39917 16.5857 8.29148L16.293 6.26708H16.3418C16.9028 6.26708 17.3662 5.85789 17.3662 5.36255V5.34102C17.5857 5.2118 17.7321 4.99644 17.7321 4.75954V3.94116C17.6589 4.11345 17.4394 4.24267 17.1955 4.24267ZM15.0004 5.25487C14.9272 5.29795 14.8296 5.27641 14.7565 5.23334L14.6101 5.10412C14.5369 5.03951 14.5369 4.93183 14.6101 4.84568L14.7565 4.71647C14.8296 4.65186 14.9272 4.65186 15.0004 4.69493L15.5613 4.9749L15.0004 5.25487Z" fill="#242424"/>
<path d="M28.3171 10.5528C28.3171 18.7365 17.4146 26.5757 14.9756 28.2125C12.5366 26.5757 1.63415 18.7581 1.63415 10.5528V1.46447H28.2927V10.5528H28.3171ZM0 0V10.5312C0 14.7308 2.46341 19.2319 7.29268 23.9268C10.8537 27.3726 14.3659 29.5908 14.5122 29.6985L15 30L15.4878 29.6985C15.6341 29.6123 19.1463 27.3941 22.7073 23.9268C27.5366 19.2319 30 14.7308 30 10.5312V0H0Z" fill="#FFD400"/>
</svg>
